# xmcd
#
# Track frame offsets: 
#        150
#        17619
#        32906
#        47413
#        61158
#        76846
#        92509
#        107110
#        124082
#        135037
#        151337
#        163326
#        175285
#        190301
#        205418
#        219254
#
# Disc length: 3145 seconds
#
# Revision: 0
# Processed by: cddbd v1.5.2PL0 Copyright (c) Steve Scherf et al.
# Submitted via: ExactAudioCopy v0.90b4
#
DISCID=ca0c4710
DTITLE=Throleifs - Hit Collection [CD1]
DYEAR=2002
DGENRE=Dansband
TTITLE0=Att Glömma Är Inte Så Enkelt
TTITLE1=Och Du Tände Stjärnorna
TTITLE2=Rosor Doftar Alltid Som Mest När Det Skymmer
TTITLE3=Jag Dansar Med En Ängel
TTITLE4=Tack, Min Vän
TTITLE5=Följ Mig
TTITLE6=Flyg Bort Min Fågel
TTITLE7=Forever And Ever
TTITLE8=Ring En Signal
TTITLE9=Gråt Inga Tårar
TTITLE10=Tre Gringos (With Just D)
TTITLE11=Raka Rör (Och Ös Till Bäng)
TTITLE12=Med Dig Vill Jag Leva
TTITLE13=Älska Mig
TTITLE14=Oh Josefin, Josefin
TTITLE15=En Liten Ängel
EXTD=
EXTT0=
EXTT1=
EXTT2=
EXTT3=
EXTT4=
EXTT5=
EXTT6=
EXTT7=
EXTT8=
EXTT9=
EXTT10=
EXTT11=
EXTT12=
EXTT13=
EXTT14=
EXTT15=
PLAYORDER=
